<svg width="36" height="36" viewBox="0 0 36 36" fill="none" xmlns="http://www.w3.org/2000/svg">
<g clip-path="url(#clip0_1109_989)">
<path d="M8.39972 11.6V14C8.39972 14.66 7.85978 15.2 7.19986 15.2H6V20H7.19986C7.85978 20 8.39972 20.54 8.39972 21.2V23.6C8.39972 25.58 10.0195 27.2 11.9993 27.2H15.5989V24.8H11.9993C11.3394 24.8 10.7994 24.26 10.7994 23.6V21.2C10.7994 19.64 9.79156 18.296 8.39972 17.804V17.396C9.79156 16.904 10.7994 15.56 10.7994 14V11.6C10.7994 10.94 11.3394 10.4 11.9993 10.4H15.5989V8H11.9993C10.0195 8 8.39972 9.62 8.39972 11.6Z" fill="#585858"/>
<path d="M28.7975 15.2C28.1375 15.2 27.5976 14.66 27.5976 14V11.6C27.5976 9.62 25.9778 8 23.998 8H20.3984V10.4H23.998C24.6579 10.4 25.1979 10.94 25.1979 11.6V14C25.1979 15.56 26.2058 16.904 27.5976 17.396V17.804C26.2058 18.296 25.1979 19.628 25.1979 21.2V23.6C25.1979 24.26 24.6579 24.8 23.998 24.8H20.3984V27.2H23.998C25.9778 27.2 27.5976 25.58 27.5976 23.6V21.2C27.5976 20.54 28.1375 20 28.7975 20H29.9973V15.2H28.7975Z" fill="#585858"/>
</g>
<defs>
<clipPath id="clip0_1109_989">
<rect width="36" height="36" fill="white"/>
</clipPath>
</defs>
</svg>
