<svg width="210" height="96" viewBox="0 0 210 96" fill="none" xmlns="http://www.w3.org/2000/svg">
<g clip-path="url(#clip0_973_49559)">
<path d="M29.5882 44.7273V46.9091H26.4118V44.7273H23.7647V42.5455H26.4118V36H19V42.5455H21.6471V44.7273H19V51.2727H21.6471V53.4545H19V60H26.4118V53.4545H23.7647V51.2727H26.4118V49.0909H29.5882V51.2727H37V44.7273H29.5882ZM21.1176 38.1818H24.2941V40.3636H21.1176V38.1818ZM24.2941 57.8182H21.1176V55.6364H24.2941V57.8182ZM24.2941 49.0909H21.1176V46.9091H24.2941V49.0909ZM34.8824 49.0909H31.7059V46.9091H34.8824V49.0909Z" fill="#585858"/>
</g>
<line x1="66.5" y1="30" x2="66.5" y2="66" stroke="black" stroke-opacity="0.12"/>
<g clip-path="url(#clip1_973_49559)">
<path d="M110.454 49.65C111.353 49.65 112.145 49.1785 112.553 48.4655L116.847 41.002C117.291 40.243 116.715 39.3 115.804 39.3H98.0501L96.9225 37H93V39.3H95.3991L99.7175 48.0285L98.0981 50.8345C97.2224 52.3755 98.374 54.25 100.197 54.25H114.592V51.95H100.197L101.517 49.65H110.454ZM99.1897 41.6H113.764L110.454 47.35H102.033L99.1897 41.6ZM100.197 55.4C98.8778 55.4 97.8102 56.435 97.8102 57.7C97.8102 58.965 98.8778 60 100.197 60C101.517 60 102.596 58.965 102.596 57.7C102.596 56.435 101.517 55.4 100.197 55.4ZM112.193 55.4C110.873 55.4 109.806 56.435 109.806 57.7C109.806 58.965 110.873 60 112.193 60C113.512 60 114.592 58.965 114.592 57.7C114.592 56.435 113.512 55.4 112.193 55.4Z" fill="#585858"/>
</g>
<line x1="143.5" y1="30" x2="143.5" y2="66" stroke="black" stroke-opacity="0.12"/>
<g clip-path="url(#clip2_973_49559)">
<path d="M172.4 41.6V44C172.4 44.66 171.86 45.2 171.2 45.2H170V50H171.2C171.86 50 172.4 50.54 172.4 51.2V53.6C172.4 55.58 174.02 57.2 175.999 57.2H179.599V54.8H175.999C175.339 54.8 174.799 54.26 174.799 53.6V51.2C174.799 49.64 173.792 48.296 172.4 47.804V47.396C173.792 46.904 174.799 45.56 174.799 44V41.6C174.799 40.94 175.339 40.4 175.999 40.4H179.599V38H175.999C174.02 38 172.4 39.62 172.4 41.6Z" fill="#585858"/>
<path d="M192.797 45.2C192.138 45.2 191.598 44.66 191.598 44V41.6C191.598 39.62 189.978 38 187.998 38H184.398V40.4H187.998C188.658 40.4 189.198 40.94 189.198 41.6V44C189.198 45.56 190.206 46.904 191.598 47.396V47.804C190.206 48.296 189.198 49.628 189.198 51.2V53.6C189.198 54.26 188.658 54.8 187.998 54.8H184.398V57.2H187.998C189.978 57.2 191.598 55.58 191.598 53.6V51.2C191.598 50.54 192.138 50 192.797 50H193.997V45.2H192.797Z" fill="#585858"/>
</g>
<defs>
<clipPath id="clip0_973_49559">
<rect width="36" height="36" fill="white" transform="translate(10 30)"/>
</clipPath>
<clipPath id="clip1_973_49559">
<rect width="36" height="36" fill="white" transform="translate(87 30)"/>
</clipPath>
<clipPath id="clip2_973_49559">
<rect width="36" height="36" fill="white" transform="translate(164 30)"/>
</clipPath>
</defs>
</svg>
