<svg width="36" height="36" viewBox="0 0 36 36" fill="none" xmlns="http://www.w3.org/2000/svg">
<g clip-path="url(#clip0_1109_982)">
<path d="M23.4535 19.65C24.3532 19.65 25.1449 19.1785 25.5527 18.4655L29.8471 11.002C30.291 10.243 29.7152 9.3 28.8035 9.3H11.0501L9.92254 7H6V9.3H8.39911L12.7175 18.0285L11.0981 20.8345C10.2224 22.3755 11.374 24.25 13.1973 24.25H27.592V21.95H13.1973L14.5168 19.65H23.4535ZM12.1897 11.6H26.7643L23.4535 17.35H15.0326L12.1897 11.6ZM13.1973 25.4C11.8778 25.4 10.8102 26.435 10.8102 27.7C10.8102 28.965 11.8778 30 13.1973 30C14.5168 30 15.5964 28.965 15.5964 27.7C15.5964 26.435 14.5168 25.4 13.1973 25.4ZM25.1929 25.4C23.8734 25.4 22.8058 26.435 22.8058 27.7C22.8058 28.965 23.8734 30 25.1929 30C26.5124 30 27.592 28.965 27.592 27.7C27.592 26.435 26.5124 25.4 25.1929 25.4Z" fill="#585858"/>
</g>
<defs>
<clipPath id="clip0_1109_982">
<rect width="36" height="36" fill="white"/>
</clipPath>
</defs>
</svg>
